<svg width="119" height="23" viewBox="0 0 119 23" fill="none" xmlns="http://www.w3.org/2000/svg">
<path d="M16.32 23H0.864V0.599998H16.224C17.6747 0.599998 18.9653 0.685332 20.096 0.855999C21.2267 1.00533 22.368 1.32533 23.52 1.816C24.672 2.28533 25.632 2.92533 26.4 3.736C27.168 4.52533 27.7867 5.60267 28.256 6.968C28.7467 8.33333 28.992 9.944 28.992 11.8C28.992 13.464 28.736 14.9573 28.224 16.28C27.712 17.6027 27.04 18.68 26.208 19.512C25.376 20.3227 24.3947 21.0053 23.264 21.56C22.1333 22.0933 20.992 22.4667 19.84 22.68C18.7093 22.8933 17.536 23 16.32 23ZM15.808 16.888C16.9813 16.888 17.984 16.664 18.816 16.216C19.648 15.7467 20.256 15.1387 20.64 14.392C21.024 13.6453 21.216 12.792 21.216 11.832C21.216 10.296 20.7787 9.06933 19.904 8.152C19.0507 7.21333 17.6853 6.744 15.808 6.744H8.32V16.888H15.808Z" fill="#232323"/>
<path d="M52.499 0.599998L62.579 23H53.939L52.243 19.224H41.139L39.443 23H30.867L40.915 0.599998H52.499ZM43.795 12.76H49.587L46.675 6.872L43.795 12.76Z" fill="#232323" fill-opacity="0.75"/>
<path d="M71.7888 15.544H88.0768V23H64.3328V0.535999H71.7888V15.544Z" fill="#232323" fill-opacity="0.5"/>
<path d="M110.185 0.535999H118.985L108.105 16.408V23H100.681V16.408L89.8328 0.535999H98.6328L104.393 8.28L110.185 0.535999Z" fill="#232323" fill-opacity="0.25"/>
</svg>
